<mxfile host="app.diagrams.net" agent="Mozilla/5.0 (Windows NT 10.0; Win64; x64) AppleWebKit/537.36 (KHTML, like Gecko) Chrome/136.0.0.0 Safari/537.36" version="27.0.9">
  <diagram name="Page-1" id="sU5vkDtJ0Cco5Upcyb4E">
    <mxGraphModel dx="1042" dy="535" grid="1" gridSize="10" guides="1" tooltips="1" connect="1" arrows="1" fold="1" page="1" pageScale="1" pageWidth="827" pageHeight="1169" math="0" shadow="0">
      <root>
        <mxCell id="0" />
        <mxCell id="1" parent="0" />
        <mxCell id="3is1-wfvWUHkY_hEvHEK-2" value="Sportski sustav" style="rounded=0;whiteSpace=wrap;html=1;" vertex="1" parent="1">
          <mxGeometry x="294" y="70" width="120" height="60" as="geometry" />
        </mxCell>
        <mxCell id="3is1-wfvWUHkY_hEvHEK-3" value="Administrator" style="rounded=0;whiteSpace=wrap;html=1;" vertex="1" parent="1">
          <mxGeometry x="294" y="230" width="120" height="60" as="geometry" />
        </mxCell>
        <mxCell id="3is1-wfvWUHkY_hEvHEK-4" value="" style="endArrow=none;html=1;rounded=0;entryX=0.5;entryY=1;entryDx=0;entryDy=0;exitX=0.5;exitY=0;exitDx=0;exitDy=0;" edge="1" parent="1" source="3is1-wfvWUHkY_hEvHEK-3" target="3is1-wfvWUHkY_hEvHEK-2">
          <mxGeometry width="50" height="50" relative="1" as="geometry">
            <mxPoint x="270" y="310" as="sourcePoint" />
            <mxPoint x="320" y="260" as="targetPoint" />
          </mxGeometry>
        </mxCell>
        <mxCell id="3is1-wfvWUHkY_hEvHEK-5" value="Trener" style="rounded=0;whiteSpace=wrap;html=1;" vertex="1" parent="1">
          <mxGeometry x="60" y="230" width="120" height="60" as="geometry" />
        </mxCell>
        <mxCell id="3is1-wfvWUHkY_hEvHEK-6" value="Igrači" style="rounded=0;whiteSpace=wrap;html=1;" vertex="1" parent="1">
          <mxGeometry x="540" y="230" width="120" height="60" as="geometry" />
        </mxCell>
        <mxCell id="3is1-wfvWUHkY_hEvHEK-7" value="Vođenje treninga" style="rounded=0;whiteSpace=wrap;html=1;" vertex="1" parent="1">
          <mxGeometry x="110" y="330" width="120" height="60" as="geometry" />
        </mxCell>
        <mxCell id="3is1-wfvWUHkY_hEvHEK-8" value="Raspored treninga" style="rounded=0;whiteSpace=wrap;html=1;" vertex="1" parent="1">
          <mxGeometry x="110" y="430" width="120" height="60" as="geometry" />
        </mxCell>
        <mxCell id="3is1-wfvWUHkY_hEvHEK-9" value="Evidencija treninga" style="rounded=0;whiteSpace=wrap;html=1;" vertex="1" parent="1">
          <mxGeometry x="110" y="530" width="120" height="60" as="geometry" />
        </mxCell>
        <mxCell id="3is1-wfvWUHkY_hEvHEK-10" value="Oblikovanje ekipa" style="rounded=0;whiteSpace=wrap;html=1;" vertex="1" parent="1">
          <mxGeometry x="110" y="630" width="120" height="60" as="geometry" />
        </mxCell>
        <mxCell id="3is1-wfvWUHkY_hEvHEK-11" value="Vidljivost igrača u zapisnicima za igrače" style="rounded=0;whiteSpace=wrap;html=1;" vertex="1" parent="1">
          <mxGeometry x="110" y="730" width="120" height="60" as="geometry" />
        </mxCell>
        <mxCell id="3is1-wfvWUHkY_hEvHEK-12" value="Unos termina" style="rounded=0;whiteSpace=wrap;html=1;" vertex="1" parent="1">
          <mxGeometry x="354" y="330" width="120" height="60" as="geometry" />
        </mxCell>
        <mxCell id="3is1-wfvWUHkY_hEvHEK-13" value="Brisanje termina" style="rounded=0;whiteSpace=wrap;html=1;" vertex="1" parent="1">
          <mxGeometry x="354" y="430" width="120" height="60" as="geometry" />
        </mxCell>
        <mxCell id="3is1-wfvWUHkY_hEvHEK-14" value="Evidencija događaja" style="rounded=0;whiteSpace=wrap;html=1;" vertex="1" parent="1">
          <mxGeometry x="354" y="530" width="120" height="60" as="geometry" />
        </mxCell>
        <mxCell id="3is1-wfvWUHkY_hEvHEK-15" value="Upravljanje korisnicima" style="rounded=0;whiteSpace=wrap;html=1;" vertex="1" parent="1">
          <mxGeometry x="354" y="640" width="120" height="60" as="geometry" />
        </mxCell>
        <mxCell id="3is1-wfvWUHkY_hEvHEK-16" value="Brisanje ekipa iz baze" style="rounded=0;whiteSpace=wrap;html=1;" vertex="1" parent="1">
          <mxGeometry x="354" y="730" width="120" height="60" as="geometry" />
        </mxCell>
        <mxCell id="3is1-wfvWUHkY_hEvHEK-17" value="Pristup&amp;nbsp; zapisnicima za igrače" style="rounded=0;whiteSpace=wrap;html=1;" vertex="1" parent="1">
          <mxGeometry x="580" y="330" width="120" height="60" as="geometry" />
        </mxCell>
        <mxCell id="3is1-wfvWUHkY_hEvHEK-18" value="Pregled kalendara" style="rounded=0;whiteSpace=wrap;html=1;" vertex="1" parent="1">
          <mxGeometry x="580" y="430" width="120" height="60" as="geometry" />
        </mxCell>
        <mxCell id="3is1-wfvWUHkY_hEvHEK-19" value="Pregled događaja" style="rounded=0;whiteSpace=wrap;html=1;" vertex="1" parent="1">
          <mxGeometry x="580" y="530" width="120" height="60" as="geometry" />
        </mxCell>
        <mxCell id="3is1-wfvWUHkY_hEvHEK-20" value="Prijava na treninge" style="rounded=0;whiteSpace=wrap;html=1;" vertex="1" parent="1">
          <mxGeometry x="580" y="630" width="120" height="60" as="geometry" />
        </mxCell>
        <mxCell id="3is1-wfvWUHkY_hEvHEK-21" value="Evidencija vlastitih aktivnosti" style="rounded=0;whiteSpace=wrap;html=1;" vertex="1" parent="1">
          <mxGeometry x="580" y="730" width="120" height="60" as="geometry" />
        </mxCell>
        <mxCell id="3is1-wfvWUHkY_hEvHEK-22" value="" style="endArrow=none;html=1;rounded=0;" edge="1" parent="1">
          <mxGeometry width="50" height="50" relative="1" as="geometry">
            <mxPoint x="120" y="180" as="sourcePoint" />
            <mxPoint x="600" y="180" as="targetPoint" />
          </mxGeometry>
        </mxCell>
        <mxCell id="3is1-wfvWUHkY_hEvHEK-23" value="" style="endArrow=none;html=1;rounded=0;entryX=0.5;entryY=0;entryDx=0;entryDy=0;" edge="1" parent="1" target="3is1-wfvWUHkY_hEvHEK-5">
          <mxGeometry width="50" height="50" relative="1" as="geometry">
            <mxPoint x="120" y="180" as="sourcePoint" />
            <mxPoint x="450" y="320" as="targetPoint" />
          </mxGeometry>
        </mxCell>
        <mxCell id="3is1-wfvWUHkY_hEvHEK-24" value="" style="endArrow=none;html=1;rounded=0;entryX=0.5;entryY=0;entryDx=0;entryDy=0;" edge="1" parent="1" target="3is1-wfvWUHkY_hEvHEK-6">
          <mxGeometry width="50" height="50" relative="1" as="geometry">
            <mxPoint x="600" y="180" as="sourcePoint" />
            <mxPoint x="560" y="220" as="targetPoint" />
          </mxGeometry>
        </mxCell>
        <mxCell id="3is1-wfvWUHkY_hEvHEK-25" value="" style="endArrow=none;html=1;rounded=0;entryX=0.25;entryY=1;entryDx=0;entryDy=0;" edge="1" parent="1" target="3is1-wfvWUHkY_hEvHEK-5">
          <mxGeometry width="50" height="50" relative="1" as="geometry">
            <mxPoint x="90" y="760" as="sourcePoint" />
            <mxPoint x="450" y="320" as="targetPoint" />
          </mxGeometry>
        </mxCell>
        <mxCell id="3is1-wfvWUHkY_hEvHEK-26" value="" style="endArrow=none;html=1;rounded=0;" edge="1" parent="1">
          <mxGeometry width="50" height="50" relative="1" as="geometry">
            <mxPoint x="320" y="760" as="sourcePoint" />
            <mxPoint x="320" y="290" as="targetPoint" />
          </mxGeometry>
        </mxCell>
        <mxCell id="3is1-wfvWUHkY_hEvHEK-27" value="" style="endArrow=none;html=1;rounded=0;" edge="1" parent="1">
          <mxGeometry width="50" height="50" relative="1" as="geometry">
            <mxPoint x="560" y="760" as="sourcePoint" />
            <mxPoint x="560" y="290" as="targetPoint" />
          </mxGeometry>
        </mxCell>
        <mxCell id="3is1-wfvWUHkY_hEvHEK-28" value="" style="endArrow=none;html=1;rounded=0;entryX=0;entryY=0.5;entryDx=0;entryDy=0;" edge="1" parent="1" target="3is1-wfvWUHkY_hEvHEK-12">
          <mxGeometry width="50" height="50" relative="1" as="geometry">
            <mxPoint x="320" y="360" as="sourcePoint" />
            <mxPoint x="450" y="320" as="targetPoint" />
          </mxGeometry>
        </mxCell>
        <mxCell id="3is1-wfvWUHkY_hEvHEK-29" value="" style="endArrow=none;html=1;rounded=0;entryX=0;entryY=0.5;entryDx=0;entryDy=0;" edge="1" parent="1" target="3is1-wfvWUHkY_hEvHEK-17">
          <mxGeometry width="50" height="50" relative="1" as="geometry">
            <mxPoint x="560" y="360" as="sourcePoint" />
            <mxPoint x="450" y="320" as="targetPoint" />
          </mxGeometry>
        </mxCell>
        <mxCell id="3is1-wfvWUHkY_hEvHEK-30" value="" style="endArrow=none;html=1;rounded=0;entryX=0;entryY=0.5;entryDx=0;entryDy=0;" edge="1" parent="1" target="3is1-wfvWUHkY_hEvHEK-18">
          <mxGeometry width="50" height="50" relative="1" as="geometry">
            <mxPoint x="560" y="460" as="sourcePoint" />
            <mxPoint x="450" y="320" as="targetPoint" />
          </mxGeometry>
        </mxCell>
        <mxCell id="3is1-wfvWUHkY_hEvHEK-31" value="" style="endArrow=none;html=1;rounded=0;entryX=0;entryY=0.5;entryDx=0;entryDy=0;" edge="1" parent="1" target="3is1-wfvWUHkY_hEvHEK-13">
          <mxGeometry width="50" height="50" relative="1" as="geometry">
            <mxPoint x="320" y="460" as="sourcePoint" />
            <mxPoint x="450" y="320" as="targetPoint" />
          </mxGeometry>
        </mxCell>
        <mxCell id="3is1-wfvWUHkY_hEvHEK-32" value="" style="endArrow=none;html=1;rounded=0;exitX=0;exitY=0.5;exitDx=0;exitDy=0;" edge="1" parent="1" source="3is1-wfvWUHkY_hEvHEK-7">
          <mxGeometry width="50" height="50" relative="1" as="geometry">
            <mxPoint x="400" y="370" as="sourcePoint" />
            <mxPoint x="90" y="360" as="targetPoint" />
          </mxGeometry>
        </mxCell>
        <mxCell id="3is1-wfvWUHkY_hEvHEK-33" value="" style="endArrow=none;html=1;rounded=0;exitX=0;exitY=0.5;exitDx=0;exitDy=0;" edge="1" parent="1" source="3is1-wfvWUHkY_hEvHEK-8">
          <mxGeometry width="50" height="50" relative="1" as="geometry">
            <mxPoint x="400" y="370" as="sourcePoint" />
            <mxPoint x="90" y="460" as="targetPoint" />
          </mxGeometry>
        </mxCell>
        <mxCell id="3is1-wfvWUHkY_hEvHEK-34" value="" style="endArrow=none;html=1;rounded=0;exitX=0;exitY=0.5;exitDx=0;exitDy=0;" edge="1" parent="1" source="3is1-wfvWUHkY_hEvHEK-9">
          <mxGeometry width="50" height="50" relative="1" as="geometry">
            <mxPoint x="400" y="600" as="sourcePoint" />
            <mxPoint x="90" y="560" as="targetPoint" />
          </mxGeometry>
        </mxCell>
        <mxCell id="3is1-wfvWUHkY_hEvHEK-35" value="" style="endArrow=none;html=1;rounded=0;exitX=0;exitY=0.5;exitDx=0;exitDy=0;" edge="1" parent="1" source="3is1-wfvWUHkY_hEvHEK-14">
          <mxGeometry width="50" height="50" relative="1" as="geometry">
            <mxPoint x="400" y="600" as="sourcePoint" />
            <mxPoint x="320" y="560" as="targetPoint" />
          </mxGeometry>
        </mxCell>
        <mxCell id="3is1-wfvWUHkY_hEvHEK-36" value="" style="endArrow=none;html=1;rounded=0;entryX=0;entryY=0.5;entryDx=0;entryDy=0;" edge="1" parent="1" target="3is1-wfvWUHkY_hEvHEK-19">
          <mxGeometry width="50" height="50" relative="1" as="geometry">
            <mxPoint x="560" y="560" as="sourcePoint" />
            <mxPoint x="450" y="550" as="targetPoint" />
          </mxGeometry>
        </mxCell>
        <mxCell id="3is1-wfvWUHkY_hEvHEK-37" value="" style="endArrow=none;html=1;rounded=0;entryX=0;entryY=0.5;entryDx=0;entryDy=0;" edge="1" parent="1" target="3is1-wfvWUHkY_hEvHEK-20">
          <mxGeometry width="50" height="50" relative="1" as="geometry">
            <mxPoint x="560" y="660" as="sourcePoint" />
            <mxPoint x="450" y="550" as="targetPoint" />
          </mxGeometry>
        </mxCell>
        <mxCell id="3is1-wfvWUHkY_hEvHEK-38" value="" style="endArrow=none;html=1;rounded=0;entryX=0;entryY=0.5;entryDx=0;entryDy=0;" edge="1" parent="1" target="3is1-wfvWUHkY_hEvHEK-10">
          <mxGeometry width="50" height="50" relative="1" as="geometry">
            <mxPoint x="90" y="660" as="sourcePoint" />
            <mxPoint x="450" y="550" as="targetPoint" />
          </mxGeometry>
        </mxCell>
        <mxCell id="3is1-wfvWUHkY_hEvHEK-39" value="" style="endArrow=none;html=1;rounded=0;entryX=0;entryY=0.5;entryDx=0;entryDy=0;" edge="1" parent="1" target="3is1-wfvWUHkY_hEvHEK-15">
          <mxGeometry width="50" height="50" relative="1" as="geometry">
            <mxPoint x="320" y="670" as="sourcePoint" />
            <mxPoint x="450" y="550" as="targetPoint" />
          </mxGeometry>
        </mxCell>
        <mxCell id="3is1-wfvWUHkY_hEvHEK-40" value="" style="endArrow=none;html=1;rounded=0;exitX=0;exitY=0.5;exitDx=0;exitDy=0;" edge="1" parent="1" source="3is1-wfvWUHkY_hEvHEK-11">
          <mxGeometry width="50" height="50" relative="1" as="geometry">
            <mxPoint x="400" y="670" as="sourcePoint" />
            <mxPoint x="90" y="760" as="targetPoint" />
          </mxGeometry>
        </mxCell>
        <mxCell id="3is1-wfvWUHkY_hEvHEK-42" value="" style="endArrow=none;html=1;rounded=0;entryX=0;entryY=0.5;entryDx=0;entryDy=0;" edge="1" parent="1" target="3is1-wfvWUHkY_hEvHEK-16">
          <mxGeometry width="50" height="50" relative="1" as="geometry">
            <mxPoint x="320" y="760" as="sourcePoint" />
            <mxPoint x="450" y="820" as="targetPoint" />
          </mxGeometry>
        </mxCell>
        <mxCell id="3is1-wfvWUHkY_hEvHEK-43" value="" style="endArrow=none;html=1;rounded=0;entryX=0;entryY=0.5;entryDx=0;entryDy=0;" edge="1" parent="1" target="3is1-wfvWUHkY_hEvHEK-21">
          <mxGeometry width="50" height="50" relative="1" as="geometry">
            <mxPoint x="560" y="760" as="sourcePoint" />
            <mxPoint x="450" y="780" as="targetPoint" />
          </mxGeometry>
        </mxCell>
      </root>
    </mxGraphModel>
  </diagram>
</mxfile>
